<svg width="32" height="32" viewBox="0 0 32 32" fill="none" xmlns="http://www.w3.org/2000/svg">
<g id="vuesax/bold/add-square">
<g id="add-square">
<path id="Vector" d="M21.5868 2.66675H10.4134C5.56008 2.66675 2.66675 5.56008 2.66675 10.4134V21.5734C2.66675 26.4401 5.56008 29.3334 10.4134 29.3334H21.5734C26.4268 29.3334 29.3201 26.4401 29.3201 21.5867V10.4134C29.3334 5.56008 26.4401 2.66675 21.5868 2.66675ZM21.3334 17.0001H17.0001V21.3334C17.0001 21.8801 16.5467 22.3334 16.0001 22.3334C15.4534 22.3334 15.0001 21.8801 15.0001 21.3334V17.0001H10.6667C10.1201 17.0001 9.66675 16.5467 9.66675 16.0001C9.66675 15.4534 10.1201 15.0001 10.6667 15.0001H15.0001V10.6667C15.0001 10.1201 15.4534 9.66675 16.0001 9.66675C16.5467 9.66675 17.0001 10.1201 17.0001 10.6667V15.0001H21.3334C21.8801 15.0001 22.3334 15.4534 22.3334 16.0001C22.3334 16.5467 21.8801 17.0001 21.3334 17.0001Z" fill="#292D32"/>
</g>
</g>
</svg>
