<svg width="32" height="32" viewBox="0 0 32 32" fill="none" xmlns="http://www.w3.org/2000/svg">
<g id="vuesax/bold/bag-2">
<g id="bag-2">
<path id="Vector" d="M26.6134 11.9467C25.7201 10.96 24.3734 10.3867 22.5067 10.1867V9.17336C22.5067 7.3467 21.7334 5.5867 20.3734 4.36003C19.0001 3.1067 17.2134 2.52003 15.3601 2.69336C12.1734 3.00003 9.4934 6.08003 9.4934 9.41336V10.1867C7.62673 10.3867 6.28007 10.96 5.38673 11.9467C4.0934 13.3867 4.1334 15.3067 4.28007 16.64L5.2134 24.0667C5.4934 26.6667 6.54673 29.3334 12.2801 29.3334H19.7201C25.4534 29.3334 26.5067 26.6667 26.7867 24.08L27.7201 16.6267C27.8667 15.3067 27.8934 13.3867 26.6134 11.9467ZM15.5467 4.5467C16.8801 4.4267 18.1467 4.84003 19.1334 5.73336C20.1067 6.61336 20.6534 7.8667 20.6534 9.17336V10.1067H11.3467V9.41336C11.3467 7.04003 13.3067 4.76003 15.5467 4.5467ZM11.2267 17.5334H11.2134C10.4801 17.5334 9.88007 16.9334 9.88007 16.2C9.88007 15.4667 10.4801 14.8667 11.2134 14.8667C11.9601 14.8667 12.5601 15.4667 12.5601 16.2C12.5601 16.9334 11.9601 17.5334 11.2267 17.5334ZM20.5601 17.5334H20.5467C19.8134 17.5334 19.2134 16.9334 19.2134 16.2C19.2134 15.4667 19.8134 14.8667 20.5467 14.8667C21.2934 14.8667 21.8934 15.4667 21.8934 16.2C21.8934 16.9334 21.2934 17.5334 20.5601 17.5334Z" fill="#1C1C1C"/>
</g>
</g>
</svg>
