<svg width="26" height="26" viewBox="0 0 26 26" fill="none" xmlns="http://www.w3.org/2000/svg">
<g id="vuesax/bold/box">
<path id="Vector" d="M21.1801 8.19537L13.1105 12.8695C12.7856 13.0581 12.3769 13.0581 12.0415 12.8695L3.97191 8.19537C3.39551 7.86001 3.24879 7.07401 3.68895 6.58145C3.99287 6.23561 4.33871 5.95265 4.70551 5.75353L10.3857 2.60953C11.6013 1.92833 13.5716 1.92833 14.7873 2.60953L20.4674 5.75353C20.8342 5.95265 21.1801 6.24609 21.484 6.58145C21.9032 7.07401 21.7565 7.86001 21.1801 8.19537Z" fill="#FFC768"/>
<path id="Vector_2" d="M11.9786 14.8187V21.966C11.9786 22.7625 11.1717 23.2865 10.459 22.9407C8.30016 21.8822 4.6636 19.9015 4.6636 19.9015C3.38504 19.1784 2.33704 17.3548 2.33704 15.8562V10.4485C2.33704 9.62061 3.20688 9.09661 3.91952 9.50533L11.4546 13.8755C11.769 14.0746 11.9786 14.4309 11.9786 14.8187Z" fill="#FFC768"/>
<path id="Vector_3" d="M13.1733 14.8187V21.966C13.1733 22.7625 13.9803 23.2865 14.6929 22.9407C16.8518 21.8822 20.4884 19.9015 20.4884 19.9015C21.7669 19.1784 22.8149 17.3548 22.8149 15.8562V10.4485C22.8149 9.62061 21.9451 9.09661 21.2325 9.50533L13.6973 13.8755C13.3829 14.0746 13.1733 14.4309 13.1733 14.8187Z" fill="#FFC768"/>
</g>
</svg>
