<svg width="27" height="26" viewBox="0 0 27 26" fill="none" xmlns="http://www.w3.org/2000/svg">
<g id="vuesax/bold/money-send">
<g id="money-send">
<path id="Vector" d="M11.666 10.5115C11.666 11.0775 11.8232 11.1613 12.1795 11.2871L12.714 11.4757V9.69409H12.3996C12.0014 9.69409 11.666 10.0609 11.666 10.5115Z" fill="#FF6868"/>
<path id="Vector_2" d="M14.286 15.4581H14.6004C15.0091 15.4581 15.334 15.0913 15.334 14.6407C15.334 14.0748 15.1768 13.9909 14.8205 13.8652L14.286 13.6765V15.4581Z" fill="#FF6868"/>
<path id="Vector_3" d="M21.4437 5.74311L19.2953 7.89151C19.1381 8.04871 18.939 8.12207 18.7399 8.12207C18.5408 8.12207 18.3417 8.04871 18.1845 7.89151C17.8805 7.58759 17.8805 7.08455 18.1845 6.78063L20.3329 4.63223C18.4884 3.06023 16.1094 2.09607 13.4999 2.09607C7.71494 2.09607 3.0199 6.79111 3.0199 12.5761C3.0199 18.361 7.71494 23.0561 13.4999 23.0561C19.2849 23.0561 23.9799 18.361 23.9799 12.5761C23.9799 9.96655 23.0157 7.58759 21.4437 5.74311ZM15.3339 12.3874C16.0046 12.6285 16.9059 13.1105 16.9059 14.6511C16.9059 15.9611 15.8684 17.0405 14.6003 17.0405H14.2859V17.3025C14.2859 17.7322 13.9296 18.0885 13.4999 18.0885C13.0702 18.0885 12.7139 17.7322 12.7139 17.3025V17.0405H12.6301C11.2362 17.0405 10.0939 15.8668 10.0939 14.4205C10.0939 13.9804 10.4502 13.6241 10.8799 13.6241C11.3096 13.6241 11.6659 13.9804 11.6659 14.4101C11.6659 14.9865 12.0956 15.4581 12.6301 15.4581H12.7139V13.1315L11.6659 12.7647C10.9952 12.5237 10.0939 12.0416 10.0939 10.501C10.0939 9.19103 11.1314 8.11159 12.3995 8.11159H12.7139V7.86007C12.7139 7.43039 13.0702 7.07407 13.4999 7.07407C13.9296 7.07407 14.2859 7.43039 14.2859 7.86007V8.12207H14.3697C15.7636 8.12207 16.9059 9.29583 16.9059 10.7421C16.9059 11.1717 16.5496 11.5281 16.1199 11.5281C15.6902 11.5281 15.3339 11.1717 15.3339 10.7421C15.3339 10.1657 14.9042 9.69407 14.3697 9.69407H14.2859V12.0206L15.3339 12.3874Z" fill="#FF6868"/>
<path id="Vector_4" d="M24.7031 1.79214C24.6192 1.6035 24.4725 1.4463 24.2734 1.36246C24.1791 1.33102 24.0848 1.31006 23.98 1.31006H19.788C19.3583 1.31006 19.002 1.66638 19.002 2.09606C19.002 2.52574 19.3583 2.88206 19.788 2.88206H22.0831L20.3329 4.63222C20.7312 4.97806 21.098 5.34486 21.4438 5.7431L23.194 3.99294V6.28806C23.194 6.71774 23.5503 7.07406 23.98 7.07406C24.4096 7.07406 24.766 6.71774 24.766 6.28806V2.09606C24.766 1.99126 24.745 1.89694 24.7031 1.79214Z" fill="#FF6868"/>
</g>
</g>
</svg>
