<svg width="25" height="24" viewBox="0 0 25 24" fill="none" xmlns="http://www.w3.org/2000/svg">
<g id="vuesax/bold/wallet-add">
<g id="wallet-add">
<path id="Vector" d="M5.5 14.9999C3.29 14.9999 1.5 16.7899 1.5 18.9999C1.5 19.7499 1.71 20.4599 2.08 21.0599C2.77 22.2199 4.04 22.9999 5.5 22.9999C6.96 22.9999 8.23 22.2199 8.92 21.0599C9.29 20.4599 9.5 19.7499 9.5 18.9999C9.5 16.7899 7.71 14.9999 5.5 14.9999ZM6.99 19.7299H6.25V20.5099C6.25 20.9199 5.91 21.2599 5.5 21.2599C5.09 21.2599 4.75 20.9199 4.75 20.5099V19.7299H4.01C3.6 19.7299 3.26 19.3899 3.26 18.9799C3.26 18.5699 3.6 18.2299 4.01 18.2299H4.75V17.5199C4.75 17.1099 5.09 16.7699 5.5 16.7699C5.91 16.7699 6.25 17.1099 6.25 17.5199V18.2299H6.99C7.4 18.2299 7.74 18.5699 7.74 18.9799C7.74 19.3899 7.41 19.7299 6.99 19.7299Z" fill="#FEC768"/>
<path id="Vector_2" d="M22 12.4999H19.5C18.4 12.4999 17.5 13.3999 17.5 14.4999C17.5 15.5999 18.4 16.4999 19.5 16.4999H22C22.28 16.4999 22.5 16.2799 22.5 15.9999V12.9999C22.5 12.7199 22.28 12.4999 22 12.4999Z" fill="#FEC768"/>
<path id="Vector_3" d="M17.03 5.40003C17.33 5.69003 17.08 6.14003 16.66 6.14003L8.37996 6.13003C7.89996 6.13003 7.65996 5.55003 7.99996 5.21003L9.74996 3.45003C11.23 1.98003 13.62 1.98003 15.1 3.45003L16.99 5.36003C17 5.37003 17.02 5.39003 17.03 5.40003Z" fill="#FEC768"/>
<path id="Vector_4" d="M22.37 18.6599C21.76 20.7199 20 21.9999 17.6 21.9999H11.1C10.71 21.9999 10.46 21.5699 10.62 21.2099C10.92 20.5099 11.11 19.7199 11.11 18.9999C11.11 15.9699 8.63999 13.4999 5.60999 13.4999C4.84999 13.4999 4.10999 13.6599 3.42999 13.9599C3.05999 14.1199 2.60999 13.8699 2.60999 13.4699V11.9999C2.60999 9.27988 4.24999 7.37988 6.79999 7.05988C7.04999 7.01988 7.31998 6.99988 7.59999 6.99988H17.6C17.86 6.99988 18.11 7.00988 18.35 7.04988C20.37 7.27988 21.83 8.50988 22.37 10.3399C22.47 10.6699 22.23 10.9999 21.89 10.9999H19.6C17.43 10.9999 15.71 12.9799 16.18 15.2299C16.51 16.8699 18.03 17.9999 19.7 17.9999H21.89C22.24 17.9999 22.47 18.3399 22.37 18.6599Z" fill="#FEC768"/>
</g>
</g>
</svg>
